<?xml version="1.0" standalone="no"?>
<!DOCTYPE svg PUBLIC "-//W3C//DTD SVG 20010904//EN"
 "http://www.w3.org/TR/2001/REC-SVG-20010904/DTD/svg10.dtd">
<svg version="1.0" xmlns="http://www.w3.org/2000/svg"
 width="461.000000pt" height="108.000000pt" viewBox="0 0 461.000000 108.000000"
 preserveAspectRatio="xMidYMid meet">

<g transform="translate(0.000000,108.000000) scale(0.100000,-0.100000)"
fill="#000000" stroke="none">
<path d="M0 540 l0 -540 2305 0 2305 0 0 540 0 540 -2305 0 -2305 0 0 -540z
m562 436 c71 -16 114 -34 166 -73 l32 -24 -46 -53 -45 -53 -56 30 c-105 57
-248 46 -271 -21 -22 -65 22 -103 173 -152 188 -61 254 -133 255 -274 0 -119
-59 -201 -179 -248 -74 -28 -247 -31 -332 -6 -59 19 -169 85 -169 103 0 5 21
32 47 59 46 48 47 48 72 32 56 -37 117 -59 176 -64 112 -9 181 34 179 111 -2
56 -39 87 -145 122 -160 53 -245 109 -275 182 -20 46 -17 140 5 188 54 119
231 179 413 141z m528 -441 l0 -435 -100 0 -100 0 0 435 0 435 100 0 100 0 0
-435z m454 423 c-5 -7 -59 -94 -121 -193 -63 -99 -112 -185 -111 -192 4 -18
242 -442 248 -443 3 0 64 189 134 420 l129 420 121 0 122 0 128 -422 c71 -233
131 -429 134 -436 3 -10 -19 -12 -104 -10 l-108 3 -13 55 c-8 30 -19 72 -24
93 l-10 37 -128 0 -129 0 -23 -95 -23 -95 -212 0 -212 0 -117 227 c-64 124
-114 234 -112 243 2 10 55 103 117 209 l112 191 105 0 c81 0 102 -3 97 -12z
m1503 -10 c-3 -13 -9 -49 -12 -80 l-7 -58 -119 0 -119 0 0 -355 0 -355 -100 0
-100 0 0 355 0 355 -120 0 -120 0 0 80 0 80 351 0 351 0 -5 -22z m698 -45 c-4
-38 -9 -71 -12 -75 -2 -5 -80 -8 -174 -8 l-169 0 0 -105 0 -105 150 0 150 0 0
-70 0 -70 -150 0 -151 0 3 -112 3 -113 178 -3 177 -2 0 -70 0 -70 -280 0 -280
0 0 435 0 435 281 0 281 0 -7 -67z m497 57 c188 -19 278 -100 278 -250 0 -102
-50 -184 -137 -225 -21 -10 -31 -21 -27 -28 4 -7 54 -87 111 -179 56 -92 103
-170 103 -173 0 -3 -50 -4 -112 -3 l-111 3 -91 162 c-88 158 -92 163 -123 163
l-33 0 0 -165 0 -165 -100 0 -100 0 0 435 0 435 128 0 c70 0 166 -4 214 -10z"/>
<path d="M1892 633 c-23 -98 -42 -184 -42 -190 0 -10 24 -13 88 -13 49 0 91 2
94 5 6 7 -84 375 -92 375 -3 0 -25 -80 -48 -177z"/>
<path d="M4100 700 l0 -132 70 4 c84 4 118 26 140 86 13 37 13 47 0 84 -21 59
-52 78 -138 85 l-72 6 0 -133z"/>
</g>
</svg>
