<svg version="1.1" id="Layer_1" xmlns="http://www.w3.org/2000/svg" xmlns:xlink="http://www.w3.org/1999/xlink" x="0px" y="0px"
	 width="100%" viewBox="0 0 500 500" enable-background="new 0 0 500 500" xml:space="preserve">
<path fill="#222222" opacity="1.000000" stroke="none" 
	d="
M265.000000,501.000000 
	C176.666687,501.000000 88.833374,501.000000 1.000047,501.000000 
	C1.000031,334.333405 1.000031,167.666794 1.000016,1.000137 
	C167.666565,1.000091 334.333130,1.000091 500.999756,1.000046 
	C500.999847,167.666519 500.999847,334.333038 500.999939,500.999786 
	C422.500000,501.000000 344.000000,501.000000 265.000000,501.000000 
M107.988686,206.897461 
	C107.988686,235.135162 107.988686,263.372864 107.988686,291.744812 
	C114.979256,291.744812 121.394547,291.744812 128.103729,291.744812 
	C128.103729,276.738434 128.103729,261.983551 128.785904,246.905792 
	C129.813751,248.284912 131.053009,249.554123 131.836090,251.060501 
	C138.283264,263.462555 144.586960,275.939636 151.109711,288.301361 
	C151.908066,289.814453 153.722260,291.813263 155.100128,291.840454 
	C168.576538,292.106049 182.060257,292.000488 195.769516,292.000488 
	C197.132202,286.633728 198.306259,281.460938 199.831879,276.394073 
	C200.205292,275.153900 201.699661,273.382324 202.729248,273.347412 
	C210.359131,273.088837 218.001785,273.207306 225.749329,273.207306 
	C227.398514,279.671356 228.946426,285.738434 230.492538,291.798462 
	C237.869858,291.798462 244.824020,291.798462 252.370010,291.798462 
	C243.474869,262.712006 234.688385,233.980835 225.851425,205.084656 
	C219.194931,205.084656 212.844635,205.455948 206.562363,204.961975 
	C201.906464,204.595886 200.328033,206.555695 199.114975,210.629974 
	C191.853958,235.017624 184.354691,259.334351 176.917007,283.669250 
	C176.471848,285.125793 175.868912,286.534149 175.007919,288.860504 
	C166.643463,274.004211 158.752884,260.132874 151.098389,246.132462 
	C150.459930,244.964691 150.920425,242.625168 151.705414,241.340179 
	C158.127502,230.827774 164.755096,220.440979 171.300003,210.003342 
	C172.196640,208.573395 172.981903,207.073593 174.115860,205.085098 
	C167.660767,205.085098 162.160110,205.250168 156.676224,205.018295 
	C153.756332,204.894836 152.204819,206.004501 150.793274,208.472000 
	C144.429733,219.595871 137.903305,230.627411 131.332581,241.630722 
	C130.588547,242.876694 129.195328,243.735001 128.316803,243.887756 
	C128.316803,231.141113 128.316803,218.394455 128.316803,205.283615 
	C121.508369,205.283615 115.241837,205.283615 108.519089,205.210052 
	C108.165436,205.359482 108.054337,205.614548 107.988686,206.897461 
M469.885468,280.593079 
	C464.738190,272.309753 459.590942,264.026398 454.357727,255.604736 
	C455.579437,254.889587 456.281067,254.459763 456.999908,254.060928 
	C468.673981,247.583923 472.929657,239.310211 471.151489,226.537430 
	C469.663147,215.846405 463.275818,208.641403 450.402466,206.865997 
	C436.821625,204.992996 422.960693,205.150620 408.849457,204.401321 
	C408.849457,234.209290 408.849457,262.929718 408.849457,291.622986 
	C415.692810,291.622986 422.252625,291.622986 429.313049,291.622986 
	C429.313049,280.530334 429.313049,269.812561 429.313049,259.304382 
	C433.466675,258.102448 435.526031,259.538452 437.294983,262.881165 
	C441.882904,271.550690 446.865753,280.012360 451.758118,288.518402 
	C452.469238,289.754730 453.513458,291.715759 454.464172,291.752014 
	C461.634369,292.025452 468.819702,291.901215 476.852753,291.901215 
	C474.241058,287.692352 472.236664,284.462219 469.885468,280.593079 
M82.824051,243.656723 
	C78.046013,241.751648 73.266113,239.851227 68.490517,237.940048 
	C64.639114,236.398743 60.429359,235.378860 57.078327,233.099106 
	C55.009819,231.691879 53.030281,228.240448 53.250351,225.919067 
	C53.471844,223.582703 56.054821,220.690765 58.353497,219.535416 
	C61.004486,218.203033 64.656235,217.657867 67.555527,218.271851 
	C73.763176,219.586441 79.766251,221.866974 86.720406,224.020508 
	C88.919518,221.492401 92.017593,217.930847 95.084717,214.404892 
	C81.870567,201.364914 55.867188,199.136948 41.345806,209.406799 
	C27.973785,218.863815 27.791437,237.968231 41.440189,246.973236 
	C46.763123,250.485138 53.097622,252.480438 59.012669,255.072281 
	C62.807526,256.735077 66.785728,258.009460 70.483711,259.854828 
	C74.129051,261.673920 76.119522,265.204407 74.940552,268.977417 
	C74.004463,271.973175 71.825638,275.301117 69.226151,276.859985 
	C66.462318,278.517395 62.546928,278.783966 59.145435,278.742828 
	C51.057766,278.645111 43.952641,275.468231 37.362122,270.124725 
	C33.934010,273.926880 30.617292,277.605530 27.311253,281.272308 
	C27.710312,281.873199 27.923820,282.336578 28.262890,282.673737 
	C28.850267,283.257812 29.480734,283.811920 30.153059,284.295258 
	C45.943298,295.646759 63.069981,297.112335 80.810600,290.188721 
	C90.574913,286.377991 96.121758,278.558563 96.641418,267.880463 
	C97.154213,257.343384 93.043007,249.103485 82.824051,243.656723 
M375.487000,255.055283 
	C379.631256,255.055283 383.775482,255.055283 388.115967,255.055283 
	C388.115967,250.145920 388.115967,245.630386 388.115967,240.764908 
	C379.357361,240.764908 371.040771,240.892853 362.735504,240.643845 
	C361.286346,240.600372 358.717651,239.046051 358.652832,238.059021 
	C358.265717,232.166046 358.461212,226.234772 358.461212,219.771057 
	C370.276276,219.771057 381.357391,219.771057 392.648224,219.771057 
	C393.297821,214.705963 393.879974,210.166931 394.485992,205.441757 
	C375.375214,205.441757 356.832123,205.441757 338.212677,205.441757 
	C338.212677,234.375763 338.212677,262.952850 338.212677,291.589417 
	C357.168640,291.589417 375.853668,291.589417 394.384583,291.589417 
	C394.384583,286.603699 394.384583,282.048126 394.384583,276.921082 
	C382.216492,276.921082 370.484253,276.921082 358.771790,276.921082 
	C358.771790,269.403748 358.771790,262.481018 358.771790,255.055283 
	C364.239410,255.055283 369.366730,255.055283 375.487000,255.055283 
M314.385864,220.948639 
	C316.843567,220.948639 319.301270,220.948639 321.922089,220.948639 
	C322.671051,215.539536 323.350769,210.630814 324.060699,205.503693 
	C300.487305,205.503693 277.313232,205.503693 254.270203,205.503693 
	C254.270203,210.836731 254.270203,215.738541 254.270203,221.173752 
	C262.389465,221.173752 270.122711,221.173752 278.238678,221.173752 
	C278.238678,244.972061 278.238678,268.227722 278.238678,291.725281 
	C285.202942,291.725281 291.760284,291.725281 298.921082,291.725281 
	C298.921082,268.078796 298.921082,244.706818 298.921082,220.948639 
	C304.150970,220.948639 308.784668,220.948639 314.385864,220.948639 
z"/>
<path fill="#FC8A00" opacity="1.000000" stroke="none" 
	d="
M128.103134,244.773071 
	C129.195328,243.735001 130.588547,242.876694 131.332581,241.630722 
	C137.903305,230.627411 144.429733,219.595871 150.793274,208.472000 
	C152.204819,206.004501 153.756332,204.894836 156.676224,205.018295 
	C162.160110,205.250168 167.660767,205.085098 174.115860,205.085098 
	C172.981903,207.073593 172.196640,208.573395 171.300003,210.003342 
	C164.755096,220.440979 158.127502,230.827774 151.705414,241.340179 
	C150.920425,242.625168 150.459930,244.964691 151.098389,246.132462 
	C158.752884,260.132874 166.643463,274.004211 175.007919,288.860504 
	C175.868912,286.534149 176.471848,285.125793 176.917007,283.669250 
	C184.354691,259.334351 191.853958,235.017624 199.114975,210.629974 
	C200.328033,206.555695 201.906464,204.595886 206.562363,204.961975 
	C212.844635,205.455948 219.194931,205.084656 225.851425,205.084656 
	C234.688385,233.980835 243.474869,262.712006 252.370010,291.798462 
	C244.824020,291.798462 237.869858,291.798462 230.492538,291.798462 
	C228.946426,285.738434 227.398514,279.671356 225.749329,273.207306 
	C218.001785,273.207306 210.359131,273.088837 202.729248,273.347412 
	C201.699661,273.382324 200.205292,275.153900 199.831879,276.394073 
	C198.306259,281.460938 197.132202,286.633728 195.769516,292.000488 
	C182.060257,292.000488 168.576538,292.106049 155.100128,291.840454 
	C153.722260,291.813263 151.908066,289.814453 151.109711,288.301361 
	C144.586960,275.939636 138.283264,263.462555 131.836090,251.060501 
	C131.053009,249.554123 129.813751,248.284912 128.433716,246.658020 
	C128.088730,245.864517 128.095932,245.318802 128.103134,244.773071 
M213.863358,223.153763 
	C213.647919,222.963913 213.429337,222.618973 213.217834,222.623260 
	C212.950302,222.628693 212.505630,222.872467 212.450500,223.092087 
	C209.559235,234.607040 206.701111,246.130325 203.752380,258.003662 
	C210.211304,258.003662 215.957092,258.003662 222.372025,258.003662 
	C219.524445,246.354050 216.778366,235.119705 213.863358,223.153763 
z"/>
<path fill="#FD8A00" opacity="1.000000" stroke="none" 
	d="
M470.058899,280.912567 
	C472.236664,284.462219 474.241058,287.692352 476.852753,291.901215 
	C468.819702,291.901215 461.634369,292.025452 454.464172,291.752014 
	C453.513458,291.715759 452.469238,289.754730 451.758118,288.518402 
	C446.865753,280.012360 441.882904,271.550690 437.294983,262.881165 
	C435.526031,259.538452 433.466675,258.102448 429.313049,259.304382 
	C429.313049,269.812561 429.313049,280.530334 429.313049,291.622986 
	C422.252625,291.622986 415.692810,291.622986 408.849457,291.622986 
	C408.849457,262.929718 408.849457,234.209290 408.849457,204.401321 
	C422.960693,205.150620 436.821625,204.992996 450.402466,206.865997 
	C463.275818,208.641403 469.663147,215.846405 471.151489,226.537430 
	C472.929657,239.310211 468.673981,247.583923 456.999908,254.060928 
	C456.281067,254.459763 455.579437,254.889587 454.357727,255.604736 
	C459.590942,264.026398 464.738190,272.309753 470.058899,280.912567 
M439.687408,244.460495 
	C448.469727,242.564392 452.216705,236.331848 449.908051,227.460007 
	C448.168762,220.776108 438.758331,217.594025 429.289917,220.463547 
	C429.289917,228.384186 429.289917,236.290482 429.289917,244.592163 
	C432.640350,244.592163 435.741425,244.592163 439.687408,244.460495 
z"/>
<path fill="#FC8900" opacity="1.000000" stroke="none" 
	d="
M83.151733,243.825470 
	C93.043007,249.103485 97.154213,257.343384 96.641418,267.880463 
	C96.121758,278.558563 90.574913,286.377991 80.810600,290.188721 
	C63.069981,297.112335 45.943298,295.646759 30.153059,284.295258 
	C29.480734,283.811920 28.850267,283.257812 28.262890,282.673737 
	C27.923820,282.336578 27.710312,281.873199 27.311253,281.272308 
	C30.617292,277.605530 33.934010,273.926880 37.362122,270.124725 
	C43.952641,275.468231 51.057766,278.645111 59.145435,278.742828 
	C62.546928,278.783966 66.462318,278.517395 69.226151,276.859985 
	C71.825638,275.301117 74.004463,271.973175 74.940552,268.977417 
	C76.119522,265.204407 74.129051,261.673920 70.483711,259.854828 
	C66.785728,258.009460 62.807526,256.735077 59.012669,255.072281 
	C53.097622,252.480438 46.763123,250.485138 41.440189,246.973236 
	C27.791437,237.968231 27.973785,218.863815 41.345806,209.406799 
	C55.867188,199.136948 81.870567,201.364914 95.084717,214.404892 
	C92.017593,217.930847 88.919518,221.492401 86.720406,224.020508 
	C79.766251,221.866974 73.763176,219.586441 67.555527,218.271851 
	C64.656235,217.657867 61.004486,218.203033 58.353497,219.535416 
	C56.054821,220.690765 53.471844,223.582703 53.250351,225.919067 
	C53.030281,228.240448 55.009819,231.691879 57.078327,233.099106 
	C60.429359,235.378860 64.639114,236.398743 68.490517,237.940048 
	C73.266113,239.851227 78.046013,241.751648 83.151733,243.825470 
z"/>
<path fill="#FC8A00" opacity="1.000000" stroke="none" 
	d="
M374.990509,255.055283 
	C369.366730,255.055283 364.239410,255.055283 358.771790,255.055283 
	C358.771790,262.481018 358.771790,269.403748 358.771790,276.921082 
	C370.484253,276.921082 382.216492,276.921082 394.384583,276.921082 
	C394.384583,282.048126 394.384583,286.603699 394.384583,291.589417 
	C375.853668,291.589417 357.168640,291.589417 338.212677,291.589417 
	C338.212677,262.952850 338.212677,234.375763 338.212677,205.441757 
	C356.832123,205.441757 375.375214,205.441757 394.485992,205.441757 
	C393.879974,210.166931 393.297821,214.705963 392.648224,219.771057 
	C381.357391,219.771057 370.276276,219.771057 358.461212,219.771057 
	C358.461212,226.234772 358.265717,232.166046 358.652832,238.059021 
	C358.717651,239.046051 361.286346,240.600372 362.735504,240.643845 
	C371.040771,240.892853 379.357361,240.764908 388.115967,240.764908 
	C388.115967,245.630386 388.115967,250.145920 388.115967,255.055283 
	C383.775482,255.055283 379.631256,255.055283 374.990509,255.055283 
z"/>
<path fill="#FB8901" opacity="1.000000" stroke="none" 
	d="
M313.902130,220.948639 
	C308.784668,220.948639 304.150970,220.948639 298.921082,220.948639 
	C298.921082,244.706818 298.921082,268.078796 298.921082,291.725281 
	C291.760284,291.725281 285.202942,291.725281 278.238678,291.725281 
	C278.238678,268.227722 278.238678,244.972061 278.238678,221.173752 
	C270.122711,221.173752 262.389465,221.173752 254.270203,221.173752 
	C254.270203,215.738541 254.270203,210.836731 254.270203,205.503693 
	C277.313232,205.503693 300.487305,205.503693 324.060699,205.503693 
	C323.350769,210.630814 322.671051,215.539536 321.922089,220.948639 
	C319.301270,220.948639 316.843567,220.948639 313.902130,220.948639 
z"/>
<path fill="#FF8B00" opacity="1.000000" stroke="none" 
	d="
M128.209961,244.330414 
	C128.095932,245.318802 128.088730,245.864517 128.092621,246.819473 
	C128.103729,261.983551 128.103729,276.738434 128.103729,291.744812 
	C121.394547,291.744812 114.979256,291.744812 107.988686,291.744812 
	C107.988686,263.372864 107.988686,235.135162 108.228531,206.332489 
	C108.651367,205.620895 108.820343,205.459595 108.975304,205.283615 
	C115.241837,205.283615 121.508369,205.283615 128.316803,205.283615 
	C128.316803,218.394455 128.316803,231.141113 128.209961,244.330414 
z"/>
<path fill="#FC8A00" opacity="1.000000" stroke="none" 
	d="
M108.747192,205.246826 
	C108.820343,205.459595 108.651367,205.620895 108.327087,205.871399 
	C108.054337,205.614548 108.165436,205.359482 108.747192,205.246826 
z"/>
<path fill="#272521" opacity="1.000000" stroke="none" 
	d="
M213.947815,223.519562 
	C216.778366,235.119705 219.524445,246.354050 222.372025,258.003662 
	C215.957092,258.003662 210.211304,258.003662 203.752380,258.003662 
	C206.701111,246.130325 209.559235,234.607040 212.450500,223.092087 
	C212.505630,222.872467 212.950302,222.628693 213.217834,222.623260 
	C213.429337,222.618973 213.647919,222.963913 213.947815,223.519562 
z"/>
<path fill="#262421" opacity="1.000000" stroke="none" 
	d="
M439.264954,244.526337 
	C435.741425,244.592163 432.640350,244.592163 429.289917,244.592163 
	C429.289917,236.290482 429.289917,228.384186 429.289917,220.463547 
	C438.758331,217.594025 448.168762,220.776108 449.908051,227.460007 
	C452.216705,236.331848 448.469727,242.564392 439.264954,244.526337 
z"/>
</svg>